<?xml version="1.0" encoding="UTF-8" standalone="no"?>
<!DOCTYPE svg PUBLIC "-//W3C//DTD SVG 1.1//EN" "http://www.w3.org/Graphics/SVG/1.1/DTD/svg11.dtd">
<svg width="100%" height="100%" viewBox="0 0 177 24" version="1.1" xmlns="http://www.w3.org/2000/svg" xmlns:xlink="http://www.w3.org/1999/xlink" xml:space="preserve" xmlns:serif="http://www.serif.com/" style="fill-rule:evenodd;clip-rule:evenodd;stroke-linejoin:round;stroke-miterlimit:2;">
    <g transform="matrix(1,0,0,1,-34.5737,7.63943)">
        <path d="M40.304,11.261L36.287,-2.239L37.92,-2.239L41.187,9.361L41.27,9.361L44.62,-2.239L46.27,-2.239L49.804,9.361L49.87,9.361L53.104,-2.239L54.754,-2.239L50.737,11.261L48.987,11.261L45.454,-0.389L45.387,-0.389L42.054,11.261L40.304,11.261Z" style="fill-rule:nonzero;"/>
    </g>
    <g transform="matrix(1,0,0,1,-34.5737,7.63943)">
        <path d="M58.77,11.461C57.748,11.461 56.859,11.247 56.104,10.819C55.348,10.391 54.762,9.788 54.345,9.011C53.929,8.233 53.72,7.316 53.72,6.261C53.72,5.205 53.926,4.288 54.337,3.511C54.748,2.733 55.334,2.13 56.095,1.702C56.856,1.274 57.748,1.061 58.77,1.061C59.815,1.061 60.712,1.272 61.462,1.694C62.212,2.116 62.793,2.716 63.204,3.494C63.615,4.272 63.82,5.194 63.82,6.261C63.82,7.316 63.615,8.236 63.204,9.019C62.793,9.802 62.209,10.405 61.454,10.827C60.698,11.249 59.804,11.461 58.77,11.461ZM58.77,10.094C59.87,10.094 60.726,9.758 61.337,9.086C61.948,8.413 62.254,7.472 62.254,6.261C62.254,5.038 61.948,4.094 61.337,3.427C60.726,2.761 59.87,2.427 58.77,2.427C57.681,2.427 56.829,2.763 56.212,3.436C55.595,4.108 55.287,5.049 55.287,6.261C55.287,7.472 55.595,8.413 56.212,9.086C56.829,9.758 57.681,10.094 58.77,10.094Z" style="fill-rule:nonzero;"/>
    </g>
    <g transform="matrix(1,0,0,1,-34.5737,7.63943)">
        <path d="M65.654,11.261L65.654,2.927L64.82,2.927L64.82,1.261L66.554,1.261L66.554,3.094L67.254,3.094C67.543,2.505 67.979,2.041 68.562,1.702C69.145,1.363 69.837,1.194 70.637,1.194L71.454,1.194L71.454,2.527L70.554,2.527C69.509,2.527 68.693,2.838 68.104,3.461C67.515,4.083 67.22,4.927 67.22,5.994L67.22,11.261L65.654,11.261Z" style="fill-rule:nonzero;"/>
    </g>
    <g transform="matrix(1,0,0,1,-34.5737,7.63943)">
        <path d="M72.287,11.261L72.287,-2.739L73.854,-2.739L73.854,6.061L73.92,6.061L79.037,1.261L80.987,1.261L76.287,5.494L81.387,11.261L79.454,11.261L75.237,6.461L73.854,7.594L73.854,11.261L72.287,11.261Z" style="fill-rule:nonzero;"/>
    </g>
    <g transform="matrix(1,0,0,1,-32.5737,7.63943)">
        <path d="M80.987,11.461L85.954,-2.439L87.387,-2.439L82.42,11.461L80.987,11.461Z" style="fill-rule:nonzero;"/>
    </g>
    <g transform="matrix(1,0,0,1,-32.5737,7.63943)">
        <path d="M93.137,11.461C91.437,11.461 90.081,11.088 89.07,10.344C88.059,9.599 87.504,8.572 87.404,7.261L89.12,7.261C89.143,8.149 89.506,8.838 90.212,9.327C90.918,9.816 91.909,10.061 93.187,10.061C94.309,10.061 95.173,9.855 95.779,9.444C96.384,9.033 96.687,8.427 96.687,7.627C96.687,7.005 96.473,6.491 96.045,6.086C95.618,5.68 94.987,5.399 94.154,5.244L91.637,4.761C90.504,4.538 89.631,4.127 89.02,3.527C88.409,2.927 88.104,2.183 88.104,1.294C88.104,0.149 88.531,-0.759 89.387,-1.431C90.243,-2.103 91.404,-2.439 92.87,-2.439C94.359,-2.439 95.573,-2.087 96.512,-1.381C97.451,-0.676 97.998,0.305 98.154,1.561L96.437,1.561C96.093,-0.173 94.876,-1.039 92.787,-1.039C91.809,-1.039 91.045,-0.848 90.495,-0.464C89.945,-0.081 89.67,0.466 89.67,1.177C89.67,2.333 90.493,3.072 92.137,3.394L94.754,3.911C95.898,4.133 96.768,4.549 97.362,5.161C97.956,5.772 98.254,6.555 98.254,7.511C98.254,8.755 97.798,9.724 96.887,10.419C95.976,11.113 94.726,11.461 93.137,11.461Z" style="fill-rule:nonzero;"/>
    </g>
    <g transform="matrix(1,0,0,1,-32.5737,7.63943)">
        <path d="M102.054,11.261C101.587,11.261 101.223,11.141 100.962,10.902C100.701,10.663 100.57,10.305 100.57,9.827L100.57,2.461L98.654,2.461L98.654,1.261L100.587,1.261L100.587,-1.739L102.12,-1.739L102.12,1.261L104.854,1.261L104.854,2.461L102.137,2.461L102.137,10.027L105.12,10.027L105.12,11.261L102.054,11.261Z" style="fill-rule:nonzero;"/>
    </g>
    <g transform="matrix(1,0,0,1,-32.5737,7.63943)">
        <path d="M108.82,11.444C107.709,11.444 106.831,11.163 106.187,10.602C105.543,10.041 105.22,9.316 105.22,8.427C105.22,7.472 105.534,6.733 106.162,6.211C106.79,5.688 107.698,5.427 108.887,5.427L112.487,5.427L112.487,4.961C112.487,3.249 111.57,2.394 109.737,2.394C108.248,2.394 107.354,2.961 107.054,4.094L105.454,4.094C105.609,3.138 106.073,2.394 106.845,1.861C107.618,1.327 108.598,1.061 109.787,1.061C111.143,1.061 112.181,1.386 112.904,2.036C113.626,2.686 113.987,3.622 113.987,4.844L113.987,9.594L114.754,9.594L114.754,11.261L113.02,11.261L113.02,9.761L112.32,9.761C111.976,10.272 111.498,10.68 110.887,10.986C110.276,11.291 109.587,11.444 108.82,11.444ZM109.02,10.144C109.654,10.144 110.234,10.011 110.762,9.744C111.29,9.477 111.709,9.119 112.02,8.669C112.331,8.219 112.487,7.722 112.487,7.177L112.487,6.627L109.004,6.627C107.459,6.627 106.687,7.205 106.687,8.361C106.687,8.905 106.895,9.338 107.312,9.661C107.729,9.983 108.298,10.144 109.02,10.144Z" style="fill-rule:nonzero;"/>
    </g>
    <g transform="matrix(1,0,0,1,-32.5737,7.63943)">
        <path d="M118.387,11.261C117.92,11.261 117.556,11.141 117.295,10.902C117.034,10.663 116.904,10.305 116.904,9.827L116.904,2.461L114.987,2.461L114.987,1.261L116.92,1.261L116.92,-1.739L118.454,-1.739L118.454,1.261L121.187,1.261L121.187,2.461L118.47,2.461L118.47,10.027L121.454,10.027L121.454,11.261L118.387,11.261Z" style="fill-rule:nonzero;"/>
    </g>
    <g transform="matrix(1,0,0,1,-32.5737,7.63943)">
        <path d="M126.754,11.461C125.731,11.461 124.843,11.247 124.087,10.819C123.331,10.391 122.748,9.783 122.337,8.994C121.926,8.205 121.72,7.283 121.72,6.227C121.72,5.172 121.926,4.258 122.337,3.486C122.748,2.713 123.326,2.116 124.07,1.694C124.815,1.272 125.687,1.061 126.687,1.061C127.631,1.061 128.448,1.252 129.137,1.636C129.826,2.019 130.362,2.561 130.745,3.261C131.129,3.961 131.32,4.788 131.32,5.744L131.32,6.444L123.22,6.444C123.265,7.588 123.601,8.483 124.229,9.127C124.856,9.772 125.693,10.094 126.737,10.094C127.459,10.094 128.073,9.938 128.579,9.627C129.084,9.316 129.431,8.866 129.62,8.277L131.22,8.277C130.965,9.288 130.445,10.072 129.662,10.627C128.879,11.183 127.909,11.461 126.754,11.461ZM123.304,5.244L129.804,5.244C129.726,4.344 129.409,3.644 128.854,3.144C128.298,2.644 127.57,2.394 126.67,2.394C125.77,2.394 125.023,2.644 124.429,3.144C123.834,3.644 123.459,4.344 123.304,5.244Z" style="fill-rule:nonzero;"/>
    </g>
    <g transform="matrix(1,0,0,1,-32.5737,7.63943)">
        <path d="M132.954,11.261L132.954,2.927L132.12,2.927L132.12,1.261L133.854,1.261L133.854,2.761L134.687,2.761C134.954,2.216 135.359,1.799 135.904,1.511C136.448,1.222 137.098,1.077 137.854,1.077C138.631,1.077 139.295,1.238 139.845,1.561C140.395,1.883 140.831,2.383 141.154,3.061L141.204,3.061C141.881,1.738 143.037,1.077 144.67,1.077C145.87,1.077 146.806,1.424 147.479,2.119C148.151,2.813 148.487,3.777 148.487,5.011L148.487,11.261L146.92,11.261L146.92,5.211C146.92,3.366 146.015,2.444 144.204,2.444C142.404,2.444 141.504,3.366 141.504,5.211L141.504,11.261L139.937,11.261L139.937,5.211C139.937,3.366 139.031,2.444 137.22,2.444C136.343,2.444 135.673,2.68 135.212,3.152C134.751,3.624 134.52,4.311 134.52,5.211L134.52,11.261L132.954,11.261Z" style="fill-rule:nonzero;"/>
    </g>
    <g transform="matrix(1,0,0,1,-32.5737,7.63943)">
        <path d="M154.754,11.461C153.731,11.461 152.843,11.247 152.087,10.819C151.331,10.391 150.748,9.783 150.337,8.994C149.926,8.205 149.72,7.283 149.72,6.227C149.72,5.172 149.926,4.258 150.337,3.486C150.748,2.713 151.326,2.116 152.07,1.694C152.815,1.272 153.687,1.061 154.687,1.061C155.631,1.061 156.448,1.252 157.137,1.636C157.826,2.019 158.362,2.561 158.745,3.261C159.129,3.961 159.32,4.788 159.32,5.744L159.32,6.444L151.22,6.444C151.265,7.588 151.601,8.483 152.229,9.127C152.856,9.772 153.693,10.094 154.737,10.094C155.459,10.094 156.073,9.938 156.579,9.627C157.084,9.316 157.431,8.866 157.62,8.277L159.22,8.277C158.965,9.288 158.445,10.072 157.662,10.627C156.879,11.183 155.909,11.461 154.754,11.461ZM151.304,5.244L157.804,5.244C157.726,4.344 157.409,3.644 156.854,3.144C156.298,2.644 155.57,2.394 154.67,2.394C153.77,2.394 153.023,2.644 152.429,3.144C151.834,3.644 151.459,4.344 151.304,5.244Z" style="fill-rule:nonzero;"/>
    </g>
    <g transform="matrix(1,0,0,1,-32.5737,7.63943)">
        <path d="M160.954,11.261L160.954,2.927L160.12,2.927L160.12,1.261L161.854,1.261L161.854,2.761L162.554,2.761C162.887,2.205 163.356,1.786 163.962,1.502C164.568,1.219 165.259,1.077 166.037,1.077C167.293,1.077 168.293,1.444 169.037,2.177C169.781,2.911 170.154,3.888 170.154,5.111L170.154,11.261L168.587,11.261L168.587,5.344C168.587,4.399 168.329,3.68 167.812,3.186C167.295,2.691 166.543,2.444 165.554,2.444C164.576,2.444 163.826,2.691 163.304,3.186C162.781,3.68 162.52,4.399 162.52,5.344L162.52,11.261L160.954,11.261Z" style="fill-rule:nonzero;"/>
    </g>
    <g transform="matrix(1,0,0,1,-32.5737,7.63943)">
        <path d="M174.22,11.261C173.754,11.261 173.39,11.141 173.129,10.902C172.868,10.663 172.737,10.305 172.737,9.827L172.737,2.461L170.82,2.461L170.82,1.261L172.754,1.261L172.754,-1.739L174.287,-1.739L174.287,1.261L177.02,1.261L177.02,2.461L174.304,2.461L174.304,10.027L177.287,10.027L177.287,11.261L174.22,11.261Z" style="fill-rule:nonzero;"/>
    </g>
    <g transform="matrix(0.914744,0,0,2.1174,52.886,-16.2896)">
        <path d="M100.308,8.717C100.833,8.717 101.258,8.9 101.258,9.127C101.258,9.648 101.258,10.48 101.258,10.48L99.547,10.48L99.547,8.717L100.308,8.717Z"/>
    </g>
    <g transform="matrix(5.60119e-17,0.914744,-2.1174,1.29653e-16,163.968,-88.8926)">
        <path d="M101.258,8.717L101.258,10.48L99.547,10.48L99.547,9.406C99.547,9.025 100.261,8.717 101.143,8.717C101.215,8.717 101.258,8.717 101.258,8.717Z"/>
    </g>
</svg>
