<?xml version="1.0" encoding="UTF-8" standalone="no"?>
<!DOCTYPE svg PUBLIC "-//W3C//DTD SVG 1.1//EN" "http://www.w3.org/Graphics/SVG/1.1/DTD/svg11.dtd">
<svg width="100%" height="100%" viewBox="0 0 50 50" version="1.1" xmlns="http://www.w3.org/2000/svg" xmlns:xlink="http://www.w3.org/1999/xlink" xml:space="preserve" xmlns:serif="http://www.serif.com/" style="fill-rule:evenodd;clip-rule:evenodd;stroke-linejoin:round;stroke-miterlimit:2;">
    <g id="Artboard1" transform="matrix(1.69658,0,0,1.61398,-91.437,6.10043)">
        <rect x="53.895" y="-3.78" width="29.471" height="30.979" style="fill:none;"/>
        <g transform="matrix(0.58942,0,0,0.619587,3.45595,3.4319)">
            <g transform="matrix(0.413548,0,0,0.413548,89.8953,-7.31686)">
                <path d="M70.508,18.129C70.184,18.129 69.918,17.867 69.918,17.539L69.922,0.094L25.399,0.094C24.157,0.094 23.149,1.106 23.149,2.344L23.149,82.871C23.149,84.109 24.157,85.121 25.399,85.121L85.708,85.121C86.95,85.121 87.962,84.109 87.962,82.871L87.962,18.129L70.508,18.129Z" style="fill:white;fill-rule:nonzero;"/>
            </g>
            <g transform="matrix(0.413548,0,0,0.413548,89.8953,-7.31686)">
                <path d="M21.969,82.871L21.969,7.488L19.844,7.488C18.606,7.488 17.594,8.496 17.594,9.738L17.594,90.261C17.594,91.499 18.606,92.511 19.844,92.511L80.153,92.511C81.395,92.511 82.407,91.499 82.407,90.261L82.407,86.296L25.399,86.296C23.508,86.296 21.969,84.757 21.969,82.87L21.969,82.871Z" style="fill:white;fill-rule:nonzero;"/>
            </g>
            <g transform="matrix(0.413548,0,0,0.413548,89.8953,-7.31686)">
                <path d="M16.418,90.262L16.418,14.879L14.293,14.879C13.055,14.879 12.043,15.887 12.043,17.129L12.043,97.656C12.043,98.894 13.055,99.906 14.293,99.906L74.605,99.906C75.847,99.906 76.855,98.894 76.855,97.656L76.855,93.687L19.847,93.687C17.952,93.687 16.417,92.152 16.417,90.261L16.418,90.262Z" style="fill:white;fill-rule:nonzero;"/>
            </g>
            <g transform="matrix(0.413548,0,0,0.413548,89.8953,-7.31686)">
                <path d="M71.098,0.922L71.098,16.953L87.125,16.953L71.098,0.922Z" style="fill:rgb(196,190,190);fill-rule:nonzero;"/>
            </g>
        </g>
    </g>
</svg>
